<svg width="176" height="97" viewBox="0 0 176 97" fill="none" xmlns="http://www.w3.org/2000/svg">
<rect width="176" height="97" fill="#E5E5E5"/>
<g filter="url(#filter0_d)">
<rect x="4" width="168" height="89" rx="7" fill="#ECE8E8"/>
</g>
<ellipse cx="33.5" cy="32" rx="11.5" ry="12" fill="#C4C4C4"/>
<path d="M44 32C44 38.1157 39.2593 43 33.5 43C27.7407 43 23 38.1157 23 32C23 25.8843 27.7407 21 33.5 21C39.2593 21 44 25.8843 44 32Z" stroke="white" stroke-opacity="0.41" stroke-width="2"/>
<ellipse cx="33" cy="59" rx="20" ry="14" fill="#C4C4C4" fill-opacity="0.98"/>
<path d="M52 59C52 62.4501 50.0035 65.6759 46.5687 68.0803C43.137 70.4825 38.3428 72 33 72C27.6572 72 22.863 70.4825 19.4313 68.0803C15.9965 65.6759 14 62.4501 14 59C14 55.5499 15.9965 52.3241 19.4313 49.9197C22.863 47.5175 27.6572 46 33 46C38.3428 46 43.137 47.5175 46.5687 49.9197C50.0035 52.3241 52 55.5499 52 59Z" stroke="white" stroke-opacity="0.39" stroke-width="2"/>
<line x1="161" y1="28" x2="63" y2="28" stroke="white" stroke-width="2"/>
<line x1="161" y1="40" x2="63" y2="40" stroke="white" stroke-width="2"/>
<line x1="161" y1="52" x2="63" y2="52" stroke="white" stroke-width="2"/>
<line x1="161" y1="70" x2="137" y2="70" stroke="white" stroke-width="2"/>
<defs>
<filter id="filter0_d" x="0" y="0" width="176" height="97" filterUnits="userSpaceOnUse" color-interpolation-filters="sRGB">
<feFlood flood-opacity="0" result="BackgroundImageFix"/>
<feColorMatrix in="SourceAlpha" type="matrix" values="0 0 0 0 0 0 0 0 0 0 0 0 0 0 0 0 0 0 127 0"/>
<feOffset dy="4"/>
<feGaussianBlur stdDeviation="2"/>
<feColorMatrix type="matrix" values="0 0 0 0 0 0 0 0 0 0 0 0 0 0 0 0 0 0 0.25 0"/>
<feBlend mode="normal" in2="BackgroundImageFix" result="effect1_dropShadow"/>
<feBlend mode="normal" in="SourceGraphic" in2="effect1_dropShadow" result="shape"/>
</filter>
</defs>
</svg>
